<?xml version="1.0" encoding="UTF-8" standalone="no"?>
<!-- Generator: Adobe Illustrator 19.0.0, SVG Export Plug-In . SVG Version: 6.00 Build 0)  -->

<svg
   xmlns:dc="http://purl.org/dc/elements/1.1/"
   xmlns:cc="http://creativecommons.org/ns#"
   xmlns:rdf="http://www.w3.org/1999/02/22-rdf-syntax-ns#"
   xmlns:svg="http://www.w3.org/2000/svg"
   xmlns="http://www.w3.org/2000/svg"
   xmlns:sodipodi="http://sodipodi.sourceforge.net/DTD/sodipodi-0.dtd"
   xmlns:inkscape="http://www.inkscape.org/namespaces/inkscape"
   version="1.1"
   id="Capa_1"
   x="0px"
   y="0px"
   viewBox="0 0 99.999997 99.999997"
   xml:space="preserve"
   sodipodi:docname="like.svg"
   width="100"
   height="100"
   inkscape:version="0.92.5 (2060ec1f9f, 2020-04-08)"><metadata
   id="metadata39"><rdf:RDF><cc:Work
       rdf:about=""><dc:format>image/svg+xml</dc:format><dc:type
         rdf:resource="http://purl.org/dc/dcmitype/StillImage" /><dc:title /></cc:Work></rdf:RDF></metadata><defs
   id="defs37" /><sodipodi:namedview
   pagecolor="#ffffff"
   bordercolor="#666666"
   borderopacity="1"
   objecttolerance="10"
   gridtolerance="10"
   guidetolerance="10"
   inkscape:pageopacity="0"
   inkscape:pageshadow="2"
   inkscape:window-width="1366"
   inkscape:window-height="718"
   id="namedview35"
   showgrid="false"
   inkscape:zoom="2.2693616"
   inkscape:cx="31.252757"
   inkscape:cy="19.603755"
   inkscape:window-x="0"
   inkscape:window-y="0"
   inkscape:window-maximized="1"
   inkscape:current-layer="Capa_1" />
<circle
   style="opacity:1;fill:#ffffff;fill-opacity:0.56862748;stroke:#ffffff;stroke-width:7.47562504;stroke-miterlimit:4;stroke-dasharray:none;stroke-opacity:0.99528301"
   id="path846"
   cx="50"
   cy="50"
   r="46.262188" /><path
   d="M 79.659001,43.12817 C 78.78422,33.860435 71.969232,27.136501 63.440412,27.136501 c -5.682038,0 -10.884618,2.943177 -13.812078,7.660249 -2.900951,-4.778088 -7.890311,-7.661359 -13.481298,-7.661359 -8.527668,0 -15.343808,6.723934 -16.217436,15.99167 -0.06916,0.409361 -0.352678,2.56377 0.509425,6.077168 1.242441,5.067633 4.112274,9.677095 8.297158,13.326945 L 49.614504,80.768223 70.851265,62.532284 c 4.184884,-3.65096 7.054717,-8.259313 8.297159,-13.328055 0.862102,-3.512288 0.578577,-5.666698 0.510577,-6.076059 z"
   id="path2"
   inkscape:connector-curvature="0"
   style="stroke-width:1.13075411;fill:#ff0000" />
<g
   id="g4"
   transform="translate(0,48.002998)">
</g>
<g
   id="g6"
   transform="translate(0,48.002998)">
</g>
<g
   id="g8"
   transform="translate(0,48.002998)">
</g>
<g
   id="g10"
   transform="translate(0,48.002998)">
</g>
<g
   id="g12"
   transform="translate(0,48.002998)">
</g>
<g
   id="g14"
   transform="translate(0,48.002998)">
</g>
<g
   id="g16"
   transform="translate(0,48.002998)">
</g>
<g
   id="g18"
   transform="translate(0,48.002998)">
</g>
<g
   id="g20"
   transform="translate(0,48.002998)">
</g>
<g
   id="g22"
   transform="translate(0,48.002998)">
</g>
<g
   id="g24"
   transform="translate(0,48.002998)">
</g>
<g
   id="g26"
   transform="translate(0,48.002998)">
</g>
<g
   id="g28"
   transform="translate(0,48.002998)">
</g>
<g
   id="g30"
   transform="translate(0,48.002998)">
</g>
<g
   id="g32"
   transform="translate(0,48.002998)">
</g>
</svg>